<?xml version="1.0" encoding="UTF-8"?>
<svg width="800px" height="800px" viewBox="0 0 800 800" version="1.1" xmlns="http://www.w3.org/2000/svg" xmlns:xlink="http://www.w3.org/1999/xlink">
    <defs>
        <polygon id="path-1" points="0 75.6514545 79.9482993 75.6514545 79.9482993 10 0 10"></polygon>
    </defs>
    <g id="Page-1" stroke="none" stroke-width="1" fill="none" fill-rule="evenodd">
        <g id="sprite">
            <g id="millennium_13" transform="translate(20.000000, 19.000000)">
                <path d="M56.8453676,0.333191489 L51.9713235,5.21617021 L56.8453676,0.333191489 Z M20.7225735,36.5151064 L20.7063235,36.531383 L20.7225735,36.5151064 Z M0.0669117647,0.188617021 L4.21352941,4.34776596 L4.21352941,4.29606383 L20.7531618,20.862766 L20.7531618,21.0178723 L20.7780147,20.862766 L41.4021324,0.204893617 L41.3983088,8.02723404 L20.7732353,28.6860638 L20.7579412,28.5721277 L20.7579412,28.6860638 L5.58617647,13.4894681 L5.58617647,44.3498936 L0.0669117647,38.8148936 L0.0669117647,0.188617021 Z M20.71875,44.2857447 L20.71875,44.1411702 L20.7025,44.2857447 L11.1044853,34.6595745 L11.1006618,26.837234 L20.6977206,36.4624468 L20.7063235,36.531383 L20.7082353,36.5438298 L20.7225735,36.657766 L20.7225735,36.4624468 L56.8539706,0.333191489 L56.9323529,0.254680851 L56.9323529,0.423191489 L56.9275735,8.07702128 L41.3763235,23.6278723 L41.3763235,38.8148936 L35.8570588,44.3498936 L35.8570588,29.1465957 L20.71875,44.2857447 L20.71875,44.2857447 Z" id="Fill-1" fill="#BC1212"></path>
                <path d="M143.60125,38.1628723 L151.142206,38.1628723 C151.06,40.0624468 150.441544,41.6001064 149.293529,42.7787234 C148.146471,43.956383 146.687794,44.5471277 144.928015,44.5471277 C144.010368,44.5471277 143.168235,44.37 142.395882,44.0195745 C141.624485,43.6681915 140.932426,43.1492553 140.316838,42.4589362 C139.79875,41.8854255 139.404926,41.2324468 139.138235,40.4990426 C138.870588,39.7656383 138.736765,38.9843617 138.736765,38.1485106 C138.736765,37.2954255 138.899265,36.4882979 139.220441,35.7232979 C139.545441,34.9621277 140.017647,34.2746809 140.644706,33.6609574 C141.234485,33.0711702 141.895,32.6288298 142.627206,32.337766 C143.358456,32.0438298 144.17,31.8982979 145.061838,31.8982979 C146.294926,31.8982979 147.374118,32.1864894 148.303235,32.7628723 C149.231397,33.3392553 149.934926,34.1578723 150.408088,35.2187234 L148.237279,35.2187234 C147.835809,34.7026596 147.354044,34.3139362 146.796765,34.0525532 C146.235662,33.7921277 145.611471,33.6609574 144.925147,33.6609574 C144.349706,33.6609574 143.800074,33.7691489 143.281985,33.9864894 C142.761029,34.2028723 142.299338,34.5197872 141.897868,34.9305319 C141.479191,35.3585106 141.151324,35.8573404 140.918088,36.4260638 C140.681029,36.9957447 140.565368,37.575 140.565368,38.1657447 C140.565368,38.798617 140.670515,39.3979787 140.883676,39.9657447 C141.093971,40.5306383 141.398897,41.0179787 141.795588,41.4325532 C142.213309,41.8662766 142.697941,42.2023404 143.244706,42.4417021 C143.791471,42.6810638 144.349706,42.8007447 144.919412,42.8007447 C145.847574,42.8007447 146.664853,42.5556383 147.374118,42.0625532 C148.083382,41.5685106 148.667426,40.8389362 149.12625,39.8747872 L143.60125,39.8747872 L143.60125,38.1628723 Z M136.868971,11.6214894 L138.629706,11.6214894 L138.629706,19.3605319 C138.629706,20.4615957 138.794118,21.2294681 139.121985,21.6574468 C139.452721,22.0873404 140.010956,22.3018085 140.802426,22.3018085 C141.554706,22.3018085 142.087132,22.0815957 142.400662,21.6459574 C142.710368,21.2093617 142.867132,20.4481915 142.867132,19.3605319 L142.867132,11.6214894 L144.626912,11.6214894 L144.626912,19.3432979 C144.626912,20.1676596 144.581985,20.8014894 144.490221,21.2409574 C144.396544,21.6804255 144.245515,22.0624468 144.035221,22.3841489 C143.667206,22.941383 143.220809,23.355 142.693162,23.6259574 C142.166471,23.8969149 141.548971,24.0309574 140.836838,24.0309574 C140.055882,24.0309574 139.398235,23.8997872 138.865809,23.6374468 C138.330515,23.3770213 137.868824,22.9634043 137.478824,22.4023404 C137.261838,22.0796809 137.105074,21.7168085 137.011397,21.3146809 C136.917721,20.9154255 136.868971,20.2567021 136.868971,19.3432979 L136.868971,11.6214894 Z M122.374926,23.7906383 L120.616103,23.7906383 L120.639044,11.3859574 L128.39125,19.5434043 L128.305221,11.6214894 L130.047794,11.6214894 L130.047794,23.8375532 L122.256397,15.5929787 L122.374926,23.7906383 Z M148.809853,23.7906383 L147.117941,23.7906383 L147.087353,11.4347872 L153.249926,21.032234 L159.366618,11.7756383 L159.353235,23.7906383 L157.695735,23.7906383 L157.815221,17.0952128 L153.210735,24.111383 L148.690368,17.0952128 L148.809853,23.7906383 Z M66.7569118,23.7906383 L65.065,23.7906383 L65.0344118,11.4347872 L71.1969853,21.032234 L77.3136765,11.7756383 L77.3002941,23.7906383 L75.6427941,23.7906383 L75.7622794,17.0952128 L71.1577941,24.111383 L66.6374265,17.0952128 L66.7569118,23.7906383 Z M79.9385294,23.7906383 L81.6983088,23.7906383 L81.6983088,11.6214894 L79.9385294,11.6214894 L79.9385294,23.7906383 Z M90.0460294,23.7906383 L84.305,23.7906383 L84.305,11.6214894 L86.0647794,11.6214894 L86.0647794,22.1141489 L90.0460294,22.1141489 L90.0460294,23.7906383 Z M97.6940441,23.7906383 L91.9530147,23.7906383 L91.9530147,11.6214894 L93.7127941,11.6214894 L93.7127941,22.1141489 L97.6940441,22.1141489 L97.6940441,23.7906383 Z M105.906029,23.7906383 L99.6000735,23.7906383 L99.6000735,11.6214894 L105.906029,11.6214894 L105.906029,13.247234 L101.359853,13.247234 L101.359853,16.8759574 L105.906029,16.8759574 L105.906029,18.4681915 L101.359853,18.4681915 L101.359853,22.1141489 L105.906029,22.1141489 L105.906029,23.7906383 Z M110.308824,23.7906383 L108.549044,23.7906383 L108.572941,11.3859574 L116.324191,19.5434043 L116.238162,11.6214894 L117.981691,11.6214894 L117.981691,23.8375532 L110.189338,15.5929787 L110.308824,23.7906383 Z M132.621985,23.7906383 L134.381765,23.7906383 L134.381765,11.6214894 L132.621985,11.6214894 L132.621985,23.7906383 Z M102.770735,44.3001064 L101.010956,44.3001064 L101.033897,31.8944681 L108.786103,40.0528723 L108.700074,32.13 L110.443603,32.13 L110.443603,44.3460638 L102.65125,36.1014894 L102.770735,44.3001064 Z M79.8305147,44.3001064 L78.0697794,44.3001064 L78.0936765,31.8944681 L85.8449265,40.0528723 L85.7598529,32.13 L87.5024265,32.13 L87.5024265,44.3460638 L79.7110294,36.1014894 L79.8305147,44.3001064 Z M65.0305882,44.307766 L65.0305882,32.1376596 L71.0115441,32.1376596 L71.0115441,33.7643617 L66.7741176,33.7643617 L66.7741176,37.3921277 L71.0115441,37.3921277 L71.0115441,38.9843617 L66.7741176,38.9843617 L66.7741176,44.307766 L65.0305882,44.307766 Z M73.7042647,44.3068085 L75.4640441,44.3068085 L75.4640441,32.1376596 L73.7042647,32.1376596 L73.7042647,44.3068085 Z M95.6618382,39.0523404 L94.2117647,35.9023404 L92.7626471,39.0523404 L95.6618382,39.0523404 Z M91.9721324,40.7642553 L90.3834559,44.307766 L88.5185294,44.307766 L94.1936029,31.688617 L99.9613971,44.307766 L98.0582353,44.307766 L96.4083824,40.7642553 L91.9721324,40.7642553 Z M123.975074,41.2611702 C123.448382,42.3220213 122.716176,43.1348936 121.785147,43.6997872 C120.853162,44.2646809 119.773971,44.5471277 118.54375,44.5471277 C117.631838,44.5471277 116.792574,44.37 116.020221,44.0195745 C115.251691,43.6681915 114.559632,43.1492553 113.949779,42.4589362 C113.431691,41.8854255 113.037868,41.2324468 112.773088,40.4990426 C112.505441,39.7656383 112.371618,38.9843617 112.371618,38.1485106 C112.371618,37.3011702 112.534118,36.4969149 112.85625,35.7376596 C113.178382,34.9764894 113.650588,34.2861702 114.274779,33.6609574 C114.864559,33.0817021 115.519338,32.6431915 116.240074,32.346383 C116.956985,32.0467021 117.732206,31.8982979 118.560956,31.8982979 C119.808382,31.8982979 120.901912,32.192234 121.844412,32.7829787 C122.786912,33.372766 123.496176,34.208617 123.975074,35.2876596 L121.9075,35.2876596 C121.5175,34.7476596 121.038603,34.3426596 120.471765,34.0697872 C119.902059,33.7978723 119.261618,33.6609574 118.540882,33.6609574 C117.968309,33.6609574 117.424412,33.7691489 116.906324,33.9864894 C116.387279,34.2028723 115.929412,34.5197872 115.527941,34.9305319 C115.111176,35.3585106 114.784265,35.8573404 114.550074,36.4260638 C114.316838,36.9957447 114.200221,37.575 114.200221,38.1657447 C114.200221,38.798617 114.305368,39.3979787 114.516618,39.9657447 C114.729779,40.5306383 115.031838,41.0179787 115.427574,41.4325532 C115.843382,41.8662766 116.325147,42.2023404 116.871912,42.4417021 C117.415809,42.6810638 117.974044,42.8007447 118.540882,42.8007447 C119.235809,42.8007447 119.864779,42.6705319 120.423015,42.4043617 C120.98125,42.1420213 121.442941,41.76 121.804265,41.2611702 L123.975074,41.2611702 Z M132.562721,44.307766 L126.256765,44.307766 L126.256765,32.1376596 L132.562721,32.1376596 L132.562721,33.7643617 L128.016544,33.7643617 L128.016544,37.3921277 L132.562721,37.3921277 L132.562721,38.9843617 L128.016544,38.9843617 L128.016544,42.6303191 L132.562721,42.6303191 L132.562721,44.307766 Z M189.189191,37.7865957 L190.465294,37.7865957 C191.370515,37.7865957 192.029118,37.6267021 192.438235,37.3097872 C192.846397,36.9928723 193.050956,36.4911702 193.050956,35.8008511 C193.050956,35.1105319 192.842574,34.5973404 192.429632,34.2631915 C192.014779,33.9290426 191.379118,33.7643617 190.525515,33.7643617 L189.189191,33.7643617 L189.189191,37.7865957 Z M189.189191,44.307766 L187.446618,44.307766 L187.446618,32.1376596 L190.265515,32.1376596 C191.059853,32.1376596 191.663971,32.1778723 192.079779,32.2554255 C192.492721,32.3320213 192.856912,32.4631915 193.167574,32.6489362 C193.675147,32.9428723 194.076618,33.3641489 194.377721,33.9146809 C194.676912,34.4632979 194.827941,35.0588298 194.827941,35.7012766 C194.827941,36.8301064 194.446544,37.7320213 193.686618,38.4051064 C192.922868,39.0753191 191.892426,39.4123404 190.590515,39.4123404 L189.189191,39.4123404 L189.189191,44.307766 Z M177.184265,32.1376596 L178.944044,32.1376596 L178.944044,39.8776596 C178.944044,40.9787234 179.109412,41.7456383 179.437279,42.173617 C179.767059,42.6044681 180.325294,42.8179787 181.116765,42.8179787 C181.869044,42.8179787 182.401471,42.5987234 182.714044,42.1621277 C183.024706,41.7255319 183.181471,40.9643617 183.181471,39.8776596 L183.181471,32.1376596 L184.942206,32.1376596 L184.942206,39.8604255 C184.942206,40.6847872 184.896324,41.3176596 184.805515,41.7571277 C184.710882,42.1965957 184.560809,42.578617 184.349559,42.9012766 C183.9825,43.4575532 183.535147,43.8711702 183.008456,44.1421277 C182.481765,44.4130851 181.863309,44.5471277 181.151176,44.5471277 C180.371176,44.5471277 179.713529,44.4159574 179.180147,44.153617 C178.644853,43.8941489 178.184118,43.4805319 177.793162,42.9185106 C177.577132,42.5958511 177.420368,42.2339362 177.326691,41.8318085 C177.232059,41.4325532 177.184265,40.7738298 177.184265,39.8604255 L177.184265,32.1376596 Z M164.646912,38.1657447 C164.646912,38.798617 164.751103,39.3979787 164.962353,39.9657447 C165.175515,40.5306383 165.477574,41.0179787 165.873309,41.4325532 C166.292941,41.8662766 166.77375,42.2023404 167.317647,42.4417021 C167.864412,42.6810638 168.419779,42.8007447 168.986618,42.8007447 C170.245515,42.8007447 171.296985,42.353617 172.141985,41.4603191 C172.987941,40.5670213 173.412353,39.4573404 173.412353,38.1312766 C173.412353,37.5692553 173.310074,37.0330851 173.108382,36.522766 C172.904779,36.0124468 172.609412,35.5442553 172.219412,35.1162766 C171.757721,34.6193617 171.262574,34.2517021 170.735882,34.0152128 C170.211103,33.7787234 169.628015,33.6609574 168.986618,33.6609574 C168.414044,33.6609574 167.870147,33.7691489 167.352059,33.9864894 C166.833015,34.2028723 166.375147,34.5197872 165.973676,34.9305319 C165.557868,35.3585106 165.23,35.8573404 164.996765,36.4260638 C164.762574,36.9957447 164.646912,37.575 164.646912,38.1657447 Z M162.817353,38.1485106 C162.817353,37.2954255 162.979853,36.4882979 163.301985,35.7232979 C163.624118,34.9621277 164.096324,34.2746809 164.720515,33.6609574 C165.310294,33.0817021 165.965074,32.6431915 166.685809,32.346383 C167.405588,32.0467021 168.180809,31.8982979 169.009559,31.8982979 C169.858382,31.8982979 170.646985,32.0467021 171.373456,32.346383 C172.099926,32.6431915 172.763309,33.0874468 173.363603,33.6781915 C173.982059,34.2861702 174.446618,34.965 174.757279,35.7146809 C175.066985,36.4681915 175.22375,37.2781915 175.22375,38.1485106 C175.22375,39.0102128 175.089926,39.8058511 174.822279,40.5335106 C174.5575,41.2611702 174.156029,41.9112766 173.623603,42.4934043 C172.993676,43.172234 172.290147,43.6825532 171.515882,44.0281915 C170.737794,44.3728723 169.898529,44.5471277 168.992353,44.5471277 C168.078529,44.5471277 167.238309,44.37 166.468824,44.0195745 C165.697426,43.6681915 165.008235,43.1492553 164.395515,42.4589362 C163.877426,41.8854255 163.483603,41.2324468 163.219779,40.4990426 C162.951176,39.7656383 162.817353,38.9843617 162.817353,38.1485106 Z M154.981985,38.4539362 L155.882426,38.4539362 C157.101176,38.4539362 158.006397,38.2567021 158.601912,37.8603191 C159.197426,37.4668085 159.49375,36.8645745 159.49375,36.0603191 C159.49375,35.2761702 159.236618,34.6997872 158.727132,34.3311702 C158.214779,33.9635106 157.406103,33.7806383 156.301103,33.7806383 L154.981985,33.7806383 L154.981985,38.4539362 Z M154.981985,44.307766 L153.222206,44.307766 L153.222206,32.1376596 L156.724559,32.1376596 C158.183235,32.1376596 159.296838,32.4746809 160.066324,33.1506383 C160.834853,33.8246809 161.219118,34.7993617 161.219118,36.0746809 C161.219118,37.0675532 160.896985,37.8947872 160.253676,38.5621277 C159.610368,39.2265957 158.781618,39.5837234 157.767426,39.6344681 L161.219118,44.307766 L159.014853,44.307766 L154.981985,38.6530851 L154.981985,44.307766 L154.981985,44.307766 Z" id="Fill-2" fill="#1A1D1F"></path>
            </g>
            <path d="M164,109 L165,109 L165,121 L164,121 L164,109 Z M162,111 L163,111 L163,119 L162,119 L162,111 Z M160,113 L161,113 L161,117 L160,117 L160,113 Z" id="Combined-Shape" fill="#D8D8D8"></path>
            <path d="M184,109 L185,109 L185,121 L184,121 L184,109 Z M182,111 L183,111 L183,119 L182,119 L182,111 Z M180,113 L181,113 L181,117 L180,117 L180,113 Z" id="Combined-Shape-Copy" fill="#D8D8D8" transform="translate(182.500000, 115.000000) scale(-1, 1) translate(-182.500000, -115.000000) "></path>
            <g id="fb" transform="translate(320.000000, 20.000000)" fill="#BC1212">
                <path d="M10.9946247,1.89415432e-06 C4.92089266,0.00296975788 -0.000989138835,4.9280593 1.49107461e-07,11.001792 C0.00098943705,17.0755246 4.92447537,21.9990106 10.998208,21.9999999 C17.0719407,22.0009891 21.9970302,17.0791073 21.9999981,11.0053753 C22.0017102,8.0860443 20.8427686,5.28578966 18.7784895,3.22151054 C16.7142103,1.15723142 13.9139557,-0.00171015654 10.9946247,1.89415432e-06 Z M12.9936476,10.8549112 L11.4890067,10.8549112 L11.4890067,16.3575979 L9.47923635,16.3575979 L9.47923635,10.8549112 L8.47972489,10.8549112 L8.47972489,9.13532163 L9.47923635,9.13532163 L9.47923635,7.74890252 L9.48998378,7.74890252 C9.41189923,7.0924166 9.63918153,6.43637784 10.1066593,5.96890005 C10.5741371,5.50142226 11.2301759,5.27413996 11.8866618,5.35222452 L11.8866618,5.34147708 L13.1441117,5.34147708 L13.1441117,7.06106668 L12.1123579,7.06106668 C11.7204497,7.13197381 11.4489871,7.49236382 11.4890067,7.88861917 L11.4890067,9.13532163 L13.2838283,9.13532163 L12.9936476,10.8549112 Z" id="fb.svg"></path>
                <g id="g" transform="translate(40.000000, 0.000000)">
                    <path d="M10.9946247,1.89415432e-06 C4.92089266,0.00296975788 -0.000989138835,4.9280593 1.49107461e-07,11.001792 C0.00098943705,17.0755246 4.92447537,21.9990106 10.998208,21.9999999 C17.0719407,22.0009891 21.9970302,17.0791073 21.9999981,11.0053753 C22.0017102,8.0860443 20.8427686,5.28578966 18.7784895,3.22151054 C16.7142103,1.15723142 13.9139557,-0.00171015654 10.9946247,1.89415432e-06 L10.9946247,1.89415432e-06 Z M11.7147028,13.4020533 C10.7469352,14.6324655 9.08450651,15.0786964 7.63067753,14.4982917 C6.29641777,13.9703837 5.4026638,12.7010048 5.35548151,11.2668814 C5.30829923,9.83275804 6.11668635,8.50737916 7.41336233,7.89291402 C8.71003831,7.27844889 10.2477256,7.49207671 11.3277952,8.43673836 C11.0376144,8.75916141 10.7366862,9.08158446 10.4142632,9.38251264 C9.59993347,8.74783521 8.46723032,8.71733935 7.61993009,9.30728059 C7.06530458,9.73033328 6.73194056,10.3816693 6.71315099,11.0789713 C6.69436142,11.7762732 6.9921652,12.4446168 7.52320318,12.8969239 C8.07628567,13.3714588 8.83213651,13.5334392 9.53110568,13.3272216 C10.2300748,13.1210039 10.7769533,12.5746779 10.9838772,11.8759176 C10.2960414,11.8651701 9.60820557,11.8759176 8.93111716,11.8544227 L8.93111716,10.6184677 C10.0703453,10.6184677 11.2203208,10.6184677 12.3595489,10.6292151 C12.4854931,11.600989 12.2565201,12.5855728 11.7147028,13.4020533 L11.7147028,13.4020533 Z M16.9164614,11.8006855 C16.5725434,11.8006855 16.2286255,11.8006855 15.8847076,11.8114329 C15.8847076,12.1553509 15.8847076,12.4885213 15.8739602,12.8324393 L14.8529538,12.8324393 L14.8529538,11.8114329 C14.5090359,11.8006855 14.165118,11.8006855 13.8212001,11.8006855 L13.8212001,10.7796792 C14.165118,10.7689317 14.5090359,10.7689317 14.8529538,10.7689317 C14.8529538,10.4250138 14.8529538,10.0810959 14.8637013,9.74792543 L15.8739602,9.74792543 C15.8847076,10.0810959 15.8847076,10.4250138 15.8847076,10.7689317 C16.2286255,10.7689317 16.5725434,10.7689317 16.9164614,10.7796792 L16.9164614,11.8006855 Z" id="g.svg"></path>
                </g>
            </g>
            <g id="twitter" transform="translate(400.000000, 20.000000)" fill="#BC1212">
                <path d="M10.9946247,1.89415432e-06 C4.92089266,0.00296975788 -0.000989138835,4.9280593 1.49107461e-07,11.001792 C0.00098943705,17.0755246 4.92447537,21.9990106 10.998208,21.9999999 C17.0719407,22.0009891 21.9970302,17.0791073 21.9999981,11.0053753 C22.0017102,8.0860443 20.8427686,5.28578966 18.7784895,3.22151054 C16.7142103,1.15723142 13.9139557,-0.00171015654 10.9946247,1.89415432e-06 Z M15.2721038,8.76990884 L15.2721038,8.84514089 C15.3580279,10.5306587 14.7447802,12.1769598 13.5770912,13.3955064 C12.4094022,14.6140529 10.7907243,15.2968867 9.10307612,15.2828544 C7.88450224,15.2841923 6.68972717,14.9454866 5.65314949,14.3048379 C6.79633601,14.4834352 7.96013875,14.1492351 8.83439025,13.3913059 C7.91973404,13.3785529 7.11913479,12.7737524 6.85686221,11.8974124 C7.16611413,11.9559226 7.48542268,11.9299324 7.78114162,11.8221804 C6.7628602,11.6194333 6.04023242,10.7104675 6.07229946,9.67269338 C6.35513386,9.86734962 6.69802079,9.95497628 7.03956861,9.91988439 C6.08652878,9.27502626 5.7953807,8.00242741 6.37322764,7.0073295 C7.48201977,8.39716181 9.14258108,9.23333098 10.9193926,9.29653316 L10.9193926,9.29653316 C10.8761664,9.13530863 10.854483,8.96906932 10.854908,8.80215115 C10.8583796,7.90162715 11.4074687,7.09311607 12.2432644,6.75785339 C13.0790601,6.42259071 14.034671,6.62752158 14.6595,7.27601538 L14.6595,7.27601538 C15.1459909,7.20926977 15.6139412,7.04475597 16.0351717,6.79238081 C15.8711862,7.28023553 15.5498679,7.69983935 15.1216397,7.98534609 C15.5431123,7.94081332 15.9538584,7.82449584 16.3360999,7.64142817 C16.0640808,8.08772451 15.7016414,8.47212992 15.2721038,8.76990884 L15.2721038,8.76990884 Z" id="twitter.svg"></path>
            </g>
            <g id="vk" transform="translate(280.000000, 20.000000)" fill="#BC1212">
                <path d="M11.0001598,1.89320166e-06 C6.55114053,1.89320166e-06 2.54020033,2.68002645 0.837634358,6.79038431 C-0.864931614,10.9007422 0.0761678605,15.6319687 3.22209957,18.7779004 C6.36803128,21.9238321 11.0992578,22.8649316 15.2096157,21.1623656 C19.3199735,19.4597997 21.9999981,15.4488595 21.9999981,10.9998402 C22.0017093,8.08197743 20.8433506,5.28313118 18.7801097,3.21989029 C16.7168688,1.15664939 13.9180226,-0.00170929642 11.0001598,1.89320166e-06 Z M15.2325195,12.4070461 C15.6776056,12.8365875 16.0804845,13.307812 16.4356268,13.8142519 C16.4397569,13.823911 16.4474518,13.8316059 16.4571108,13.835736 C16.5467575,13.9435867 16.5713853,14.0913535 16.521563,14.2224491 C16.4144731,14.3612831 16.2554424,14.4504955 16.0811398,14.4695157 L14.3624151,14.4695157 C14.1164441,14.4604769 13.8796055,14.3740121 13.6856672,14.2224491 C13.4303829,14.0209869 13.1996395,13.7902435 12.9981773,13.5349592 C12.7925874,13.1910159 12.4675538,12.934813 12.0851048,12.8152432 C12.0489636,12.8134829 12.0127615,12.8171031 11.9776845,12.8259852 C11.5705035,13.0889699 11.3692828,13.5770371 11.4728091,14.0505766 C11.4822543,14.2554793 11.3325854,14.4332111 11.1290642,14.4587737 L10.334154,14.4587737 C9.22037048,14.3965852 8.17698541,13.8942146 7.433806,13.0623099 C6.24878871,11.5944131 5.27606397,9.96717836 4.54420004,8.22839655 C4.4582638,8.02429799 4.6408783,7.91687769 4.83423484,7.91687769 L6.5637016,7.91687769 C6.7301897,7.90879073 6.88079829,8.01510267 6.9289306,8.1746864 C7.11332802,8.64846606 7.33234071,9.10803367 7.58419441,9.54966619 C8.18574807,10.6131271 8.5617191,11.0428083 8.86249593,11.0428083 C8.9159558,11.0451495 8.96873075,11.030071 9.01288434,10.9998402 C9.39959741,10.7849996 9.33514523,9.41001981 9.31366117,9.11998501 C9.32243579,8.811509 9.25607779,8.50552485 9.12030464,8.22839655 C8.98383895,8.0679552 8.79220669,7.96447378 8.58320316,7.93836175 C8.64037323,7.85545212 8.71810789,7.78882241 8.80878578,7.74500522 C9.2018726,7.60897679 9.61848199,7.55415976 10.0333772,7.58387478 L10.3019279,7.58387478 C10.5810337,7.5717226 10.8602841,7.60436226 11.1290642,7.68055304 C11.5157772,7.76648928 11.5157772,8.01355596 11.4835511,8.84069224 C11.4728091,9.08775892 11.4620671,9.35630966 11.4620671,9.66782852 L11.4620671,9.88266911 C11.3736139,10.2749119 11.4773405,10.685829 11.7413599,10.9890982 C11.7765366,11.0206315 11.8232028,11.0361869 11.8702642,11.0320663 C11.9776845,11.0320663 12.2892034,11.0320663 13.1378237,9.57115025 C13.4001089,9.1020351 13.6263436,8.61365529 13.8145716,8.11023423 C13.8478448,8.05254681 13.891556,8.00155034 13.9434759,7.95984581 C13.9860434,7.93612134 14.0344633,7.92494752 14.0831223,7.92761972 L16.1241079,7.92761972 C16.2714635,7.89335376 16.4260399,7.93809956 16.5323051,8.04578205 C16.5860152,8.1746864 16.521563,8.59362556 15.5870064,9.85044302 C15.436618,10.0652836 15.2969716,10.2478981 15.1788093,10.4090286 C14.330189,11.5154576 14.330189,11.5691678 15.2325195,12.4070461 Z" id="vk.svg"></path>
            </g>
            <path d="M35.0402335,109 L21.9802335,109 C20.8683366,109.022436 19.9834987,109.939003 20.0002335,111.051 L20.0002335,139.951 C19.9840431,141.06295 20.8684144,141.97948 21.9802335,142.003 L35.0402335,142.003 C36.1521304,141.980564 37.0369684,141.063997 37.0202335,139.952 L37.0202335,111.052 C37.0375246,109.939615 36.1525265,109.022435 35.0402335,109 L35.0402335,109 Z M26.4202335,110.478 L30.6002335,110.478 C30.7383047,110.478 30.8502335,110.589929 30.8502335,110.728 C30.8502335,110.866071 30.7383047,110.978 30.6002335,110.978 L26.4202335,110.978 C26.2821623,110.978 26.1702335,110.866071 26.1702335,110.728 C26.1702335,110.589929 26.2821623,110.478 26.4202335,110.478 Z M28.5102335,140.978 C28.0922914,140.992674 27.7072691,140.752214 27.5370592,140.37022 C27.3668494,139.988226 27.4455197,139.541153 27.7359047,139.240209 C28.0262896,138.939265 28.4702684,138.844683 28.858096,139.001146 C29.2459235,139.157609 29.499976,139.5338 29.5002335,139.952 C29.5047791,140.218989 29.40299,140.476832 29.217293,140.668719 C29.0315961,140.860606 28.7772283,140.970792 28.5102335,140.975 L28.5102335,140.978 Z M35.6402335,138.208 L21.3802335,138.208 L21.3802335,112.252 L35.6402335,112.252 L35.6402335,138.205 L35.6402335,138.208 Z" id="phone.svg" fill="#1A1D1F"></path>
            <g id="login" transform="translate(60.000000, 109.000000)" fill="#FFFFFF">
                <path d="M2.37,11.976 L2.37,17 L15,17 L15,0 L2.37,0 L2.37,5.022 L3.95,5.022 L3.95,1.546 L13.42,1.546 L13.42,15.453 L3.95,15.453 L3.95,11.976 L2.37,11.976 Z M0,9.276 L9.08,9.276 L7.11,12.366 L8.68,12.366 L11.05,8.503 L8.68,4.64 L7.11,4.64 L9.08,7.73 L0,7.73 L0,9.275 L0,9.276 Z" id="login.svg"></path>
            </g>
            <path d="M113.342,113.6005 L110.201,110.1805 C109.933,109.9105 109.933,109.4735 110.201,109.2025 C110.469,108.9325 110.902,108.9325 111.17,109.2025 L115,113.1105 C115.268,113.3815 115.268,113.8195 115,114.0895 L111.17,117.9975 C110.903,118.2695 110.469,118.2675 110.201,117.9975 C109.933,117.7285 109.933,117.2905 110.201,117.0195 L113.342,113.6005 Z" id="Shape" fill="#BC1212"></path>
            <g id="3" transform="translate(292.000000, 181.000000)">
                <circle id="Oval-Copy-2" fill="#F4F4F4" cx="40" cy="31" r="31"></circle>
                <circle id="Oval-2" fill="#BC1212" cx="40" cy="26" r="18"></circle>
                <circle id="Oval-2-Copy" fill="#FFFFFF" cx="40" cy="26" r="13"></circle>
                <polygon id="Rectangle-4" fill="#BC1212" points="21 71 36.699707 65.5664062 36.699707 69.2197266 21.722168 74.5"></polygon>
                <polygon id="Rectangle-4-Copy" fill="#BC1212" transform="translate(51.849854, 70.033203) scale(-1, 1) translate(-51.849854, -70.033203) " points="44 71 59.699707 65.5664062 59.699707 69.2197266 44.722168 74.5"></polygon>
                <path d="M36.6452537,65.140442 L35.2637612,60.2611311 C34.0183881,55.860921 30.9133134,52.2226185 26.7622687,50.2984588 L23.335403,48.7102067 C21.3103284,47.7716941 19.7957015,45.9978874 19.1873433,43.8517782 L17.5282388,38.0059126 L17.6589851,37.0220555 C17.9198806,35.0567277 17.0034627,33.1212319 15.3168955,32.0771143 L15.2327164,32.0246101" id="Stroke-1" stroke="#1A1D1F" stroke-width="1.79104478" stroke-linecap="round"></path>
                <path d="M19.7762985,55.4163655 C19.5315224,55.4497773 19.2915224,55.4766261 19.0551045,55.4975084 C15.1118209,55.8435588 11.2712239,54.0470798 8.83480597,50.9290462 C3.82226866,44.5133908 0.00495522388,48.5192227 0.00495522388,48.5192227 C0.00495522388,48.5192227 4.14167164,53.4772899 6.95898507,58.3685336 C8.96853731,61.8576765 12.2288358,64.5127185 16.1374925,65.4870294 C16.3786866,65.5472899 16.6258507,65.6033739 16.8783881,65.6552815 C19.4425672,66.1821134 21.5768955,67.852105 22.7661493,70.1038193" id="Stroke-3" stroke="#1A1D1F" stroke-width="1.79104478" stroke-linecap="round"></path>
                <path d="M3.74728358,47.333642 L2.04041791,39.5355748 L7.05295522,24.1584067 C7.05295522,24.1584067 9.92877612,24.8785496 9.18668657,29.2656336 L6.9120597,39.2688773 L8.46429851,45.5920538" id="Stroke-5" stroke="#1A1D1F" stroke-width="1.79104478" stroke-linecap="round"></path>
                <path d="M8.86465672,25.7782807 L10.2103284,21.6262723 C10.2103284,21.6262723 13.9321194,22.9931714 12.676597,27.9488521 L10.5924179,38.8100622 L12.2557015,44.685163" id="Stroke-7" stroke="#1A1D1F" stroke-width="1.79104478" stroke-linecap="round"></path>
                <path d="M12.9286567,25.7654529 L13.1179104,25.9038731 C14.8707463,27.1878395 15.7316418,29.3625874 15.3316418,31.4973605 L14.1262687,37.9297218 L15.8462687,43.9128143" id="Stroke-9" stroke="#1A1D1F" stroke-width="1.79104478" stroke-linecap="round"></path>
                <polyline id="Stroke-11" stroke="#1A1D1F" stroke-width="1.79104478" stroke-linecap="round" stroke-linejoin="round" points="34.9373134 75.3673059 23.2167164 78.9721966 20.0614925 71.1031294 36.6447761 65.1379361 36.6447761 69.1276588"></polyline>
                <path d="M21.425194,74.5040294 L36.6442985,69.1271218" id="Stroke-13" stroke="#1A1D1F" stroke-width="1.79104478" stroke-linecap="round"></path>
                <path d="M43.1982687,65.140442 L44.5797612,60.2611311 C45.8251343,55.860921 48.930209,52.2226185 53.0812537,50.2984588 L56.5081194,48.7102067 C58.533194,47.7716941 60.0478209,45.9978874 60.6567761,43.8517782 L62.3152836,38.0059126 L62.1845373,37.0220555 C61.9236418,35.0567277 62.8400597,33.1212319 64.5266269,32.0771143 L64.610806,32.0246101" id="Stroke-15" stroke="#1A1D1F" stroke-width="1.79104478" stroke-linecap="round"></path>
                <path d="M60.0671642,55.4163655 C60.3119403,55.4497773 60.5519403,55.4766261 60.7883582,55.4975084 C64.7316418,55.8435588 68.5722388,54.0470798 71.0086567,50.9290462 C76.021194,44.5133908 79.8385075,48.5192227 79.8385075,48.5192227 C79.8385075,48.5192227 75.701791,53.4772899 72.8844776,58.3685336 C70.8749254,61.8576765 67.6146269,64.5127185 63.7059701,65.4870294 C63.4647761,65.5472899 63.2176119,65.6033739 62.9650746,65.6552815 C60.4008955,66.1821134 58.2665672,67.852105 57.0773134,70.1038193" id="Stroke-17" stroke="#1A1D1F" stroke-width="1.79104478" stroke-linecap="round"></path>
                <path d="M76.0962388,47.333642 L77.8031045,39.5355748 L72.7905672,24.1584067 C72.7905672,24.1584067 69.9147463,24.8785496 70.6568358,29.2656336 L72.9314627,39.2688773 L71.3792239,45.5920538" id="Stroke-19" stroke="#1A1D1F" stroke-width="1.79104478" stroke-linecap="round"></path>
                <path d="M70.9788657,25.7782807 L69.633194,21.6262723 C69.633194,21.6262723 65.911403,22.9931714 67.1669254,27.9488521 L69.2511045,38.8100622 L67.5878209,44.685163" id="Stroke-21" stroke="#1A1D1F" stroke-width="1.79104478" stroke-linecap="round"></path>
                <path d="M66.9149254,25.7654529 L66.7256716,25.9038731 C64.9728358,27.1878395 64.1119403,29.3625874 64.5119403,31.4973605 L65.7173134,37.9297218 L63.9973134,43.9128143" id="Stroke-23" stroke="#1A1D1F" stroke-width="1.79104478" stroke-linecap="round"></path>
                <polyline id="Stroke-25" stroke="#1A1D1F" stroke-width="1.79104478" stroke-linecap="round" stroke-linejoin="round" points="44.9062687 75.3673059 56.6268657 78.9721966 59.7820896 71.1031294 43.198806 65.1379361 43.198806 69.1276588"></polyline>
                <path d="M58.4183284,74.5040294 L43.1992239,69.1271218" id="Stroke-27" stroke="#1A1D1F" stroke-width="1.79104478" stroke-linecap="round"></path>
                <path d="M57.722209,25.7653933 C57.722209,16.1183429 49.8971343,8.2982 40.244,8.2982 C30.5914627,8.2982 22.7663881,16.1183429 22.7663881,25.7653933 C22.7663881,35.4124437 30.5914627,43.2325866 40.244,43.2325866 C49.8971343,43.2325866 57.722209,35.4124437 57.722209,25.7653933 Z" id="Stroke-29" stroke="#1A1D1F" stroke-width="1.79104478"></path>
                <path d="M53.4909254,25.7653933 C53.4909254,18.4541832 47.5601791,12.5271748 40.2443582,12.5271748 C32.9285373,12.5271748 26.997791,18.4541832 26.997791,25.7653933 C26.997791,33.0766034 32.9285373,39.0036118 40.2443582,39.0036118 C47.5601791,39.0036118 53.4909254,33.0766034 53.4909254,25.7653933 Z" id="Stroke-31" stroke="#1A1D1F" stroke-width="1.79104478"></path>
                <path d="M42.0255591,30.4824281 L38.8146965,30.4824281 L38.8146965,33.1182109 L36.9840256,33.1182109 L36.9840256,30.4824281 L35,30.4824281 L35,28.9680511 L36.9840256,28.9680511 L36.9840256,27.6549521 L35,27.6549521 L35,26.1501597 L36.9840256,26.1501597 L36.9840256,19.1629393 L42.1309904,19.1629393 C43.6262056,19.1629393 44.8114972,19.5431272 45.686901,20.3035144 C46.5623047,21.0639016 47,22.0926453 47,23.3897764 C47,24.7508055 46.5798764,25.8003158 45.7396166,26.5383387 C44.8993568,27.2763615 43.706078,27.6485623 42.1597444,27.6549521 L38.8146965,27.6549521 L38.8146965,28.9680511 L42.0255591,28.9680511 L42.0255591,30.4824281 Z M38.8146965,26.1501597 L42.1309904,26.1501597 C43.1214107,26.1501597 43.8753968,25.9169352 44.3929712,25.4504792 C44.9105457,24.9840232 45.1693291,24.3035188 45.1693291,23.4089457 C45.1693291,22.59744 44.9009612,21.9408971 44.3642173,21.4392971 C43.8274734,20.9376972 43.102241,20.6837061 42.1884984,20.6773163 L38.8146965,20.6773163 L38.8146965,26.1501597 Z" id="₽" fill="#1A1D1F"></path>
            </g>
            <g id="2" transform="translate(156.000000, 187.000000)">
                <circle id="Oval" fill="#F4F4F4" cx="40" cy="31" r="31"></circle>
                <polygon id="Rectangle-3" fill="#BC1212" points="16.5146484 32.6464844 24 36.4599609 17.699707 52.7797852 9.86279297 49.8598633"></polygon>
                <polygon id="Rectangle-3-Copy" fill="#BC1212" transform="translate(61.931396, 43.713135) scale(-1, 1) translate(-61.931396, -43.713135) " points="61.5146484 33.6464844 69 37.4599609 62.699707 53.7797852 54.862793 50.8598633"></polygon>
                <path d="M59.0806929,47.1708971 C49.9651024,53.2774686 43.1651024,43.2178114 43.1651024,43.2178114 C39.9424252,38.8222114 37.6362835,43.3648971 37.6362835,43.3648971 C35.9411654,47.4757543 33.4970709,47.1023829 32.0564409,46.3964971 C31.3295118,46.0400971 30.9868346,45.1927829 31.2136063,44.4171257 L32.3014803,40.6915829 C32.7783307,39.0579257 33.9550236,37.7178114 35.5165984,37.0326686 L39.6287244,35.2274114 C41.0995906,34.58124 42.4551811,34.7283257 44.2706142,35.0979257 L54.9906142,37.6316971 L59.0806929,47.1708971 Z" id="Stroke-1" stroke="#1A1D1F" stroke-width="1.88976378"></path>
                <path d="M61.3446299,52.4516514 L54.2851024,54.6906229 L49.8617953,48.54068 C49.8617953,48.54068 55.0252598,50.6740514 59.0806929,47.1710229 L61.3446299,52.4516514 Z" id="Stroke-3" stroke="#1A1D1F" stroke-width="1.88976378"></path>
                <polyline id="Stroke-5" stroke="#1A1D1F" stroke-width="1.88976378" points="0.355023622 55.2247829 6.62274016 57.70324 17.8573858 30.3258114 0.355023622 23.2449543"></polyline>
                <polyline id="Stroke-7" stroke="#1A1D1F" stroke-width="1.88976378" points="16.9496063 32.5377543 24.9527559 35.90124 17.8573228 52.4515257 10.0255118 49.4111257"></polyline>
                <polyline id="Stroke-9" stroke="#1A1D1F" stroke-width="1.88976378" points="79.5887244 56.9548629 73.3210079 59.43332 62.0863622 32.0558914 79.5887244 24.9750343"></polyline>
                <polyline id="Stroke-11" stroke="#1A1D1F" stroke-width="1.88976378" points="62.9942047 34.2678343 54.9910551 37.63132 62.0864882 54.1816057 69.9182992 51.1412057"></polyline>
                <path d="M49.3375118,48.49976 L55.4244409,56.1167886 C55.8905827,56.7001029 56.0228661,57.4807886 55.7746772,58.18416 L55.7746772,58.18416 C55.159874,59.9297029 52.9110551,60.4049029 51.639874,59.0585029 L43.2833386,50.2094743" id="Stroke-13" stroke="#1A1D1F" stroke-width="1.88976378" stroke-linecap="round"></path>
                <path d="M39.5875276,54.3699257 L46.6205984,61.7110114 C48.5160315,63.6891257 51.8779213,62.9675257 52.7176063,60.3620971 C52.7302047,60.3218686 52.7428031,60.2810114 52.7554016,60.2401543" id="Stroke-15" stroke="#1A1D1F" stroke-width="1.88976378" stroke-linecap="round"></path>
                <path d="M36.2171969,57.8209086 L42.0332598,64.2669086 C42.6808189,64.9841086 43.5702677,65.4750229 44.535937,65.5278229 C45.6338898,65.5875371 47.0228661,65.1707943 48.1907402,63.2618229" id="Stroke-17" stroke="#1A1D1F" stroke-width="1.88976378" stroke-linecap="round"></path>
                <path d="M24.9529449,35.9013657 C24.9529449,35.9013657 31.3567244,35.3708514 36.5806614,36.5651371" id="Stroke-19" stroke="#1A1D1F" stroke-width="1.88976378"></path>
                <path d="M19.1003465,49.5524914 C19.1003465,49.5524914 27.1406614,55.1065486 35.8921575,63.6620343 L38.6178268,66.27312 C39.984126,67.5824343 42.3230236,66.8734057 42.6216063,65.0071771 C42.6253858,64.9820343 42.6291654,64.9562629 42.6329449,64.9304914" id="Stroke-21" stroke="#1A1D1F" stroke-width="1.88976378"></path>
                <path d="M23.7172913,53.0072457 L23.0004409,53.8067886 C22.2999685,54.5874743 22.3938268,55.7937029 23.2064252,56.4574743 C24.0580787,57.1526743 25.3084724,57.0527314 26.0379213,56.2311886 L26.7383937,55.4423314" id="Stroke-23" stroke="#1A1D1F" stroke-width="1.88976378"></path>
                <path d="M30.4419528,58.6059314 L28.8702992,60.3162743 C28.0325039,61.2277029 26.6202205,61.3094171 25.6828976,60.4998171 C24.7247874,59.6732457 24.6214803,58.2275314 25.4510866,57.2727314 L26.9156535,55.5894171" id="Stroke-25" stroke="#1A1D1F" stroke-width="1.88976378"></path>
                <path d="M30.4419528,58.6059314 L29.4252598,59.7122171 C28.5811654,60.6311886 28.6372283,62.0574171 29.551874,62.9066171 C30.4671496,63.7570743 31.8983307,63.71056 32.7562835,62.8022743 L33.8189606,61.6771314" id="Stroke-27" stroke="#1A1D1F" stroke-width="1.88976378"></path>
                <path d="M36.9307717,64.6573143 L36.3714016,65.2280571 C35.5487244,66.0690857 34.2013228,66.0923429 33.3496693,65.2808571 C32.4948661,64.4668571 32.4595906,63.1166857 33.2696693,62.2586857 L33.672189,61.8325143" id="Stroke-29" stroke="#1A1D1F" stroke-width="1.88976378"></path>
            </g>
            <g id="1" transform="translate(20.000000, 183.000000)">
                <circle id="Oval-Copy" fill="#F4F4F4" cx="41" cy="31" r="31"></circle>
                <rect id="Rectangle" fill="#BC1212" x="9" y="27" width="4" height="4" rx="2"></rect>
                <rect id="Rectangle-Copy" fill="#BC1212" x="16" y="27" width="4" height="4" rx="2"></rect>
                <rect id="Rectangle-Copy-2" fill="#BC1212" x="23" y="27" width="4" height="4" rx="2"></rect>
                <rect id="Rectangle-Copy-3" fill="#BC1212" x="31" y="27" width="4" height="4" rx="2"></rect>
                <rect id="Rectangle-Copy-4" fill="#BC1212" x="38" y="27" width="4" height="4" rx="2"></rect>
                <rect id="Rectangle-Copy-5" fill="#BC1212" x="45" y="27" width="4" height="4" rx="2"></rect>
                <rect id="Rectangle-Copy-6" fill="#BC1212" x="52" y="27" width="4" height="4" rx="2"></rect>
                <rect id="Rectangle-Copy-13" fill="#BC1212" x="23" y="34" width="4" height="4" rx="2"></rect>
                <rect id="Rectangle-Copy-12" fill="#BC1212" x="31" y="34" width="4" height="4" rx="2"></rect>
                <rect id="Rectangle-Copy-11" fill="#BC1212" x="38" y="34" width="4" height="4" rx="2"></rect>
                <rect id="Rectangle-Copy-10" fill="#BC1212" x="45" y="34" width="4" height="4" rx="2"></rect>
                <rect id="Rectangle-Copy-16" fill="#BC1212" x="31" y="41" width="4" height="4" rx="2"></rect>
                <rect id="Rectangle-2" fill="#BC1212" x="3" y="68" width="15" height="7"></rect>
                <rect id="Rectangle-2-Copy" fill="#BC1212" x="62" y="68" width="15" height="7"></rect>
                <rect id="Rectangle-Copy-15" fill="#BC1212" x="38" y="41" width="4" height="4" rx="2"></rect>
                <rect id="Rectangle-Copy-14" fill="#BC1212" x="45" y="41" width="4" height="4" rx="2"></rect>
                <rect id="Rectangle-Copy-9" fill="#BC1212" x="52" y="34" width="4" height="4" rx="2"></rect>
                <rect id="Rectangle-Copy-7" fill="#BC1212" x="60" y="27" width="4" height="4" rx="2"></rect>
                <rect id="Rectangle-Copy-8" fill="#BC1212" x="67" y="27" width="4" height="4" rx="2"></rect>
                <path d="M11.9242993,30.6330182 L9.82906122,30.6330182 C9.38389116,30.6330182 9.02307483,30.2713818 9.02307483,29.8252 L9.02307483,27.7252 C9.02307483,27.2790182 9.38389116,26.9173818 9.82906122,26.9173818 L11.9242993,26.9173818 C12.3694694,26.9173818 12.7302857,27.2790182 12.7302857,27.7252 L12.7302857,29.8252 C12.7302857,30.2713818 12.3694694,30.6330182 11.9242993,30.6330182 Z" id="Stroke-1" stroke="#1A1D1F" stroke-width="1.63265306" stroke-linejoin="round"></path>
                <path d="M19.1986395,30.6330182 L17.1034014,30.6330182 C16.6582313,30.6330182 16.297415,30.2713818 16.297415,29.8252 L16.297415,27.7252 C16.297415,27.2790182 16.6582313,26.9173818 17.1034014,26.9173818 L19.1986395,26.9173818 C19.6438095,26.9173818 20.0046259,27.2790182 20.0046259,27.7252 L20.0046259,29.8252 C20.0046259,30.2713818 19.6438095,30.6330182 19.1986395,30.6330182 Z" id="Stroke-3" stroke="#1A1D1F" stroke-width="1.63265306" stroke-linejoin="round"></path>
                <path d="M26.4729796,30.6330182 L24.3777415,30.6330182 C23.9325714,30.6330182 23.5717551,30.2713818 23.5717551,29.8252 L23.5717551,27.7252 C23.5717551,27.2790182 23.9325714,26.9173818 24.3777415,26.9173818 L26.4729796,26.9173818 C26.9181497,26.9173818 27.278966,27.2790182 27.278966,27.7252 L27.278966,29.8252 C27.278966,30.2713818 26.9181497,30.6330182 26.4729796,30.6330182 Z" id="Stroke-5" stroke="#1A1D1F" stroke-width="1.63265306" stroke-linejoin="round"></path>
                <path d="M33.7473197,30.6330182 L31.6520816,30.6330182 C31.2069116,30.6330182 30.8460952,30.2713818 30.8460952,29.8252 L30.8460952,27.7252 C30.8460952,27.2790182 31.2069116,26.9173818 31.6520816,26.9173818 L33.7473197,26.9173818 C34.1924898,26.9173818 34.5533061,27.2790182 34.5533061,27.7252 L34.5533061,29.8252 C34.5533061,30.2713818 34.1924898,30.6330182 33.7473197,30.6330182 Z" id="Stroke-7" stroke="#1A1D1F" stroke-width="1.63265306" stroke-linejoin="round"></path>
                <path d="M41.0216599,30.6330182 L38.9264218,30.6330182 C38.4812517,30.6330182 38.1204354,30.2713818 38.1204354,29.8252 L38.1204354,27.7252 C38.1204354,27.2790182 38.4812517,26.9173818 38.9264218,26.9173818 L41.0216599,26.9173818 C41.4668299,26.9173818 41.8276463,27.2790182 41.8276463,27.7252 L41.8276463,29.8252 C41.8276463,30.2713818 41.4668299,30.6330182 41.0216599,30.6330182 Z" id="Stroke-9" stroke="#1A1D1F" stroke-width="1.63265306" stroke-linejoin="round"></path>
                <path d="M48.296,30.6330182 L46.2007619,30.6330182 C45.7555918,30.6330182 45.3947755,30.2713818 45.3947755,29.8252 L45.3947755,27.7252 C45.3947755,27.2790182 45.7555918,26.9173818 46.2007619,26.9173818 L48.296,26.9173818 C48.7411701,26.9173818 49.1019864,27.2790182 49.1019864,27.7252 L49.1019864,29.8252 C49.1019864,30.2713818 48.7411701,30.6330182 48.296,30.6330182 Z" id="Stroke-11" stroke="#1A1D1F" stroke-width="1.63265306" stroke-linejoin="round"></path>
                <path d="M55.5703401,30.6330182 L53.475102,30.6330182 C53.029932,30.6330182 52.6691156,30.2713818 52.6691156,29.8252 L52.6691156,27.7252 C52.6691156,27.2790182 53.029932,26.9173818 53.475102,26.9173818 L55.5703401,26.9173818 C56.0155102,26.9173818 56.3763265,27.2790182 56.3763265,27.7252 L56.3763265,29.8252 C56.3763265,30.2713818 56.0155102,30.6330182 55.5703401,30.6330182 Z" id="Stroke-13" stroke="#1A1D1F" stroke-width="1.63265306" stroke-linejoin="round"></path>
                <path d="M26.4729796,38.0307455 L24.3777415,38.0307455 C23.9325714,38.0307455 23.5717551,37.6691091 23.5717551,37.2229273 L23.5717551,35.1229273 C23.5717551,34.6767455 23.9325714,34.3151091 24.3777415,34.3151091 L26.4729796,34.3151091 C26.9181497,34.3151091 27.278966,34.6767455 27.278966,35.1229273 L27.278966,37.2229273 C27.278966,37.6691091 26.9181497,38.0307455 26.4729796,38.0307455 Z" id="Stroke-15" stroke="#1A1D1F" stroke-width="1.63265306" stroke-linejoin="round"></path>
                <path d="M33.7473197,38.0307455 L31.6520816,38.0307455 C31.2069116,38.0307455 30.8460952,37.6691091 30.8460952,37.2229273 L30.8460952,35.1229273 C30.8460952,34.6767455 31.2069116,34.3151091 31.6520816,34.3151091 L33.7473197,34.3151091 C34.1924898,34.3151091 34.5533061,34.6767455 34.5533061,35.1229273 L34.5533061,37.2229273 C34.5533061,37.6691091 34.1924898,38.0307455 33.7473197,38.0307455 Z" id="Stroke-17" stroke="#1A1D1F" stroke-width="1.63265306" stroke-linejoin="round"></path>
                <path d="M41.0216599,38.0307455 L38.9264218,38.0307455 C38.4812517,38.0307455 38.1204354,37.6691091 38.1204354,37.2229273 L38.1204354,35.1229273 C38.1204354,34.6767455 38.4812517,34.3151091 38.9264218,34.3151091 L41.0216599,34.3151091 C41.4668299,34.3151091 41.8276463,34.6767455 41.8276463,35.1229273 L41.8276463,37.2229273 C41.8276463,37.6691091 41.4668299,38.0307455 41.0216599,38.0307455 Z" id="Stroke-19" stroke="#1A1D1F" stroke-width="1.63265306" stroke-linejoin="round"></path>
                <path d="M48.296,38.0307455 L46.2007619,38.0307455 C45.7555918,38.0307455 45.3947755,37.6691091 45.3947755,37.2229273 L45.3947755,35.1229273 C45.3947755,34.6767455 45.7555918,34.3151091 46.2007619,34.3151091 L48.296,34.3151091 C48.7411701,34.3151091 49.1019864,34.6767455 49.1019864,35.1229273 L49.1019864,37.2229273 C49.1019864,37.6691091 48.7411701,38.0307455 48.296,38.0307455 Z" id="Stroke-21" stroke="#1A1D1F" stroke-width="1.63265306" stroke-linejoin="round"></path>
                <path d="M33.7473197,45.4284727 L31.6520816,45.4284727 C31.2069116,45.4284727 30.8460952,45.0668364 30.8460952,44.6206545 L30.8460952,42.5206545 C30.8460952,42.0744727 31.2069116,41.7128364 31.6520816,41.7128364 L33.7473197,41.7128364 C34.1924898,41.7128364 34.5533061,42.0744727 34.5533061,42.5206545 L34.5533061,44.6206545 C34.5533061,45.0668364 34.1924898,45.4284727 33.7473197,45.4284727 Z" id="Stroke-23" stroke="#1A1D1F" stroke-width="1.63265306" stroke-linejoin="round"></path>
                <path d="M41.0216599,45.4284727 L38.9264218,45.4284727 C38.4812517,45.4284727 38.1204354,45.0668364 38.1204354,44.6206545 L38.1204354,42.5206545 C38.1204354,42.0744727 38.4812517,41.7128364 38.9264218,41.7128364 L41.0216599,41.7128364 C41.4668299,41.7128364 41.8276463,42.0744727 41.8276463,42.5206545 L41.8276463,44.6206545 C41.8276463,45.0668364 41.4668299,45.4284727 41.0216599,45.4284727 Z" id="Stroke-25" stroke="#1A1D1F" stroke-width="1.63265306" stroke-linejoin="round"></path>
                <path d="M48.296,45.4284727 L46.2007619,45.4284727 C45.7555918,45.4284727 45.3947755,45.0668364 45.3947755,44.6206545 L45.3947755,42.5206545 C45.3947755,42.0744727 45.7555918,41.7128364 46.2007619,41.7128364 L48.296,41.7128364 C48.7411701,41.7128364 49.1019864,42.0744727 49.1019864,42.5206545 L49.1019864,44.6206545 C49.1019864,45.0668364 48.7411701,45.4284727 48.296,45.4284727 Z" id="Stroke-27" stroke="#1A1D1F" stroke-width="1.63265306" stroke-linejoin="round"></path>
                <path d="M55.5703401,38.0307455 L53.475102,38.0307455 C53.029932,38.0307455 52.6691156,37.6691091 52.6691156,37.2229273 L52.6691156,35.1229273 C52.6691156,34.6767455 53.029932,34.3151091 53.475102,34.3151091 L55.5703401,34.3151091 C56.0155102,34.3151091 56.3763265,34.6767455 56.3763265,35.1229273 L56.3763265,37.2229273 C56.3763265,37.6691091 56.0155102,38.0307455 55.5703401,38.0307455 Z" id="Stroke-29" stroke="#1A1D1F" stroke-width="1.63265306" stroke-linejoin="round"></path>
                <path d="M62.8446803,30.6330182 L60.7494422,30.6330182 C60.3042721,30.6330182 59.9434558,30.2713818 59.9434558,29.8252 L59.9434558,27.7252 C59.9434558,27.2790182 60.3042721,26.9173818 60.7494422,26.9173818 L62.8446803,26.9173818 C63.2898503,26.9173818 63.6506667,27.2790182 63.6506667,27.7252 L63.6506667,29.8252 C63.6506667,30.2713818 63.2898503,30.6330182 62.8446803,30.6330182 Z" id="Stroke-31" stroke="#1A1D1F" stroke-width="1.63265306" stroke-linejoin="round"></path>
                <path d="M70.1190204,30.6330182 L68.0237823,30.6330182 C67.5786122,30.6330182 67.2177959,30.2713818 67.2177959,29.8252 L67.2177959,27.7252 C67.2177959,27.2790182 67.5786122,26.9173818 68.0237823,26.9173818 L70.1190204,26.9173818 C70.5641905,26.9173818 70.9250068,27.2790182 70.9250068,27.7252 L70.9250068,29.8252 C70.9250068,30.2713818 70.5641905,30.6330182 70.1190204,30.6330182 Z" id="Stroke-33" stroke="#1A1D1F" stroke-width="1.63265306" stroke-linejoin="round"></path>
                <path d="M66.5767075,47.4290364 L66.5767075,42.0721273 L68.6692245,42.0721273 C69.8251429,42.0721273 70.7617415,43.0108545 70.7617415,44.1694" id="Stroke-35" stroke="#1A1D1F" stroke-width="1.63265306" stroke-linecap="round" stroke-linejoin="round"></path>
                <path d="M79.1176054,51.6737091 C79.0142041,55.6457091 78.3573333,59.5882545 77.141551,63.3731636 C76.7486259,64.5966182 76.5603265,65.5593455 76.5603265,65.5593455 L67.571483,65.5593455" id="Stroke-37" stroke="#1A1D1F" stroke-width="1.63265306" stroke-linecap="round" stroke-linejoin="round"></path>
                <path d="M66.5767075,42.0720727 L66.5767075,36.5002545 C66.5767075,35.3417091 65.6401088,34.4029818 64.4841905,34.4029818 C63.3282721,34.4029818 62.3916735,35.3417091 62.3916735,36.5002545 L62.3916735,52.0277091 L60.9484082,48.2651636 C60.5799728,47.3046182 59.6591565,46.6708 58.6327619,46.6708 C57.2624218,46.6708 56.1516735,47.7840727 56.1516735,49.1575273 C56.1516735,51.6758909 56.8101769,54.1544364 58.100517,56.3155273 C58.5946667,57.1435273 59.1873197,57.9949818 59.8833741,58.7744364 C62.4548027,61.6555273 63.135619,65.5593455 63.135619,65.5593455" id="Stroke-39" stroke="#1A1D1F" stroke-width="1.63265306" stroke-linecap="round" stroke-linejoin="round"></path>
                <path d="M70.7617959,48.9956909 L70.7617959,43.6387818 L72.8543129,43.6387818 C74.0102313,43.6387818 74.9468299,44.5775091 74.9468299,45.7360545 L74.9468299,50.8147818" id="Stroke-41" stroke="#1A1D1F" stroke-width="1.63265306" stroke-linecap="round" stroke-linejoin="round"></path>
                <path d="M74.9468844,46.3172364 L77.0394014,46.3172364 C78.1953197,46.3172364 79.1319184,47.2559636 79.1319184,48.4145091 L79.1319184,51.6741455" id="Stroke-43" stroke="#1A1D1F" stroke-width="1.63265306" stroke-linecap="round" stroke-linejoin="round"></path>
                <mask id="mask-2" fill="white">
                    <use xlink:href="#path-1"></use>
                </mask>
                <g id="Clip-46"></g>
                <polygon id="Stroke-45" stroke="#1A1D1F" stroke-width="1.63265306" stroke-linecap="round" stroke-linejoin="round" mask="url(#mask-2)" points="61.4917007 74.8332727 77.7180952 74.8332727 77.7180952 68.3783636 61.4917007 68.3783636"></polygon>
                <path d="M74.7171156,71.6057636 C74.7171156,71.2703091 74.445551,70.9981273 74.1108571,70.9981273 C73.7761633,70.9981273 73.5045986,71.2703091 73.5045986,71.6057636 C73.5045986,71.9412182 73.7761633,72.2134 74.1108571,72.2134 C74.445551,72.2134 74.7171156,71.9412182 74.7171156,71.6057636 Z" id="Stroke-47" stroke="#1A1D1F" stroke-width="1.63265306" stroke-linecap="round" stroke-linejoin="round" mask="url(#mask-2)"></path>
                <polyline id="Stroke-48" stroke="#1A1D1F" stroke-width="1.63265306" stroke-linejoin="round" mask="url(#mask-2)" points="74.9468844 40.2968364 74.9468844 23.1242909 5.00130612 23.1242909 5.00130612 40.2968364"></polyline>
                <path d="M22.8105034,62.4462182 L57.0102313,62.4462182" id="Stroke-49" stroke="#1A1D1F" stroke-width="1.63265306" stroke-linecap="round" stroke-linejoin="round" mask="url(#mask-2)"></path>
                <path d="M13.3715918,47.4290364 L13.3715918,42.0721273 L11.2790748,42.0721273 C10.1231565,42.0721273 9.18655782,43.0108545 9.18655782,44.1694" id="Stroke-50" stroke="#1A1D1F" stroke-width="1.63265306" stroke-linecap="round" stroke-linejoin="round" mask="url(#mask-2)"></path>
                <path d="M0.830693878,51.6737091 C0.934095238,55.6457091 1.59096599,59.5882545 2.8067483,63.3731636 C3.19967347,64.5966182 3.38797279,65.5593455 3.38797279,65.5593455 L12.3768163,65.5593455" id="Stroke-51" stroke="#1A1D1F" stroke-width="1.63265306" stroke-linecap="round" stroke-linejoin="round" mask="url(#mask-2)"></path>
                <path d="M13.3715918,42.0720727 L13.3715918,36.5002545 C13.3715918,35.3417091 14.3081905,34.4029818 15.4641088,34.4029818 C16.6200272,34.4029818 17.5566259,35.3417091 17.5566259,36.5002545 L17.5566259,52.0277091 L18.9998912,48.2651636 C19.3683265,47.3046182 20.2891429,46.6708 21.3155374,46.6708 C22.6858776,46.6708 23.7966259,47.7840727 23.7966259,49.1575273 C23.7966259,51.6758909 23.1381224,54.1544364 21.8477823,56.3155273 C21.3536327,57.1435273 20.7609796,57.9949818 20.0649252,58.7744364 C17.4934966,61.6555273 16.8126803,65.5593455 16.8126803,65.5593455" id="Stroke-52" stroke="#1A1D1F" stroke-width="1.63265306" stroke-linecap="round" stroke-linejoin="round" mask="url(#mask-2)"></path>
                <path d="M9.1865034,48.9956909 L9.1865034,43.6387818 L7.09398639,43.6387818 C5.93806803,43.6387818 5.00146939,44.5775091 5.00146939,45.7360545 L5.00146939,50.8147818" id="Stroke-53" stroke="#1A1D1F" stroke-width="1.63265306" stroke-linecap="round" stroke-linejoin="round" mask="url(#mask-2)"></path>
                <path d="M5.00141497,46.3172364 L2.90889796,46.3172364 C1.75297959,46.3172364 0.816380952,47.2559636 0.816380952,48.4145091 L0.816380952,51.6741455" id="Stroke-54" stroke="#1A1D1F" stroke-width="1.63265306" stroke-linecap="round" stroke-linejoin="round" mask="url(#mask-2)"></path>
                <polygon id="Stroke-55" stroke="#1A1D1F" stroke-width="1.63265306" stroke-linecap="round" stroke-linejoin="round" mask="url(#mask-2)" points="2.23020408 74.8332727 18.4565986 74.8332727 18.4565986 68.3783636 2.23020408 68.3783636"></polygon>
                <path d="M5.23118367,71.6057636 C5.23118367,71.2703091 5.5027483,70.9981273 5.83744218,70.9981273 C6.17213605,70.9981273 6.44370068,71.2703091 6.44370068,71.6057636 C6.44370068,71.9412182 6.17213605,72.2134 5.83744218,72.2134 C5.5027483,72.2134 5.23118367,71.9412182 5.23118367,71.6057636 Z" id="Stroke-56" stroke="#1A1D1F" stroke-width="1.63265306" stroke-linecap="round" stroke-linejoin="round" mask="url(#mask-2)"></path>
                <path d="M39.9626667,10.8181818 L53.1942313,10.8181818 C54.3245714,10.8181818 55.241034,11.7367273 55.241034,12.8690909 C55.241034,14.002 54.3245714,14.9205455 53.1942313,14.9205455 L26.7305578,14.9205455 C25.6007619,14.9205455 24.6842993,15.8385455 24.6842993,16.9714545 L24.6842993,16.9714545 C24.6842993,18.1038182 25.6007619,19.0223636 26.7305578,19.0223636 L37.9278367,19.0223636 C39.0581769,19.0223636 39.9740952,19.9409091 39.9740952,21.0732727 L39.9740952,23.1247273" id="Stroke-57" stroke="#1A1D1F" stroke-width="1.63265306" stroke-linejoin="round" mask="url(#mask-2)"></path>
            </g>
            <g id="powered" transform="translate(233.000000, 109.000000)">
                <path d="M12.443,12.132 C13.84,12.132 14.808,11.054 14.808,9.338 C14.808,7.611 13.84,6.555 12.443,6.555 C11.695,6.555 11.035,6.94 10.65,7.479 L10.65,6.687 L9.825,6.687 L9.825,14.024 L10.65,14.024 L10.65,11.197 C11.079,11.791 11.717,12.132 12.443,12.132 Z M12.234,11.395 C11.585,11.395 10.936,10.999 10.65,10.537 L10.65,8.139 C10.936,7.677 11.585,7.292 12.234,7.292 C13.301,7.292 13.939,8.161 13.939,9.338 C13.939,10.515 13.301,11.395 12.234,11.395 Z M18.438,12.132 C20.055,12.132 21.067,10.878 21.067,9.338 C21.067,7.798 20.055,6.555 18.438,6.555 C16.821,6.555 15.809,7.798 15.809,9.338 C15.809,10.878 16.821,12.132 18.438,12.132 Z M18.438,11.395 C17.305,11.395 16.667,10.427 16.667,9.338 C16.667,8.26 17.305,7.292 18.438,7.292 C19.571,7.292 20.198,8.26 20.198,9.338 C20.198,10.427 19.571,11.395 18.438,11.395 Z M27.832,12 L29.526,6.687 L28.668,6.687 L27.37,10.922 L25.973,6.687 L25.269,6.687 L23.872,10.922 L22.574,6.687 L21.716,6.687 L23.41,12 L24.235,12 L25.621,7.732 L27.007,12 L27.832,12 Z M32.881,12.132 C33.75,12.132 34.465,11.846 34.993,11.318 L34.597,10.779 C34.179,11.208 33.563,11.45 32.958,11.45 C31.814,11.45 31.11,10.614 31.044,9.613 L35.345,9.613 L35.345,9.404 C35.345,7.809 34.399,6.555 32.793,6.555 C31.275,6.555 30.175,7.798 30.175,9.338 C30.175,10.999 31.308,12.132 32.881,12.132 Z M34.531,9.008 L31.044,9.008 C31.088,8.194 31.649,7.237 32.782,7.237 C33.992,7.237 34.52,8.216 34.531,9.008 Z M37.501,12 L37.501,8.238 C37.743,7.809 38.436,7.391 38.942,7.391 C39.074,7.391 39.173,7.402 39.272,7.424 L39.272,6.577 C38.546,6.577 37.93,6.984 37.501,7.545 L37.501,6.687 L36.676,6.687 L36.676,12 L37.501,12 Z M42.704,12.132 C43.573,12.132 44.288,11.846 44.816,11.318 L44.42,10.779 C44.002,11.208 43.386,11.45 42.781,11.45 C41.637,11.45 40.933,10.614 40.867,9.613 L45.168,9.613 L45.168,9.404 C45.168,7.809 44.222,6.555 42.616,6.555 C41.098,6.555 39.998,7.798 39.998,9.338 C39.998,10.999 41.131,12.132 42.704,12.132 Z M44.354,9.008 L40.867,9.008 C40.911,8.194 41.472,7.237 42.605,7.237 C43.815,7.237 44.343,8.216 44.354,9.008 Z M51.174,12 L51.174,4.663 L50.349,4.663 L50.349,7.49 C49.92,6.907 49.271,6.555 48.556,6.555 C47.159,6.555 46.191,7.655 46.191,9.349 C46.191,11.076 47.17,12.132 48.556,12.132 C49.304,12.132 49.953,11.747 50.349,11.208 L50.349,12 L51.174,12 Z M48.754,11.395 C47.687,11.395 47.049,10.526 47.049,9.349 C47.049,8.172 47.687,7.292 48.754,7.292 C49.414,7.292 50.052,7.688 50.349,8.15 L50.349,10.559 C50.052,11.021 49.414,11.395 48.754,11.395 Z M56.487,10.559 L56.487,8.15 C56.773,7.688 57.422,7.292 58.071,7.292 C59.149,7.292 59.787,8.172 59.787,9.349 C59.787,10.526 59.149,11.395 58.071,11.395 C57.422,11.395 56.773,11.021 56.487,10.559 Z M56.487,12 L56.487,11.208 C56.883,11.747 57.532,12.132 58.28,12.132 C59.666,12.132 60.645,11.076 60.645,9.349 C60.645,7.655 59.666,6.555 58.28,6.555 C57.554,6.555 56.916,6.907 56.487,7.49 L56.487,4.663 L55.662,4.663 L55.662,12 L56.487,12 Z M61.69,14.079 C61.844,14.123 62.119,14.156 62.295,14.156 C62.999,14.145 63.538,13.848 63.857,13.078 L66.519,6.687 L65.617,6.687 L63.857,11.043 L62.086,6.687 L61.195,6.687 L63.417,12.055 L63.065,12.858 C62.878,13.298 62.636,13.419 62.273,13.419 C62.141,13.419 61.943,13.386 61.822,13.331 L61.69,14.079 Z" id="powered-by" fill="#FFFFFF" opacity="0.5"></path>
                <path d="M78.634,13.216 C81.856,13.216 83.818,11.686 83.818,9.04 C83.818,4.576 77.14,5.548 77.14,4.414 C77.14,4.108 77.338,3.874 78.058,3.874 C79.192,3.874 80.542,4.27 81.586,5.062 L83.53,2.488 C82.162,1.372 80.398,0.814 78.436,0.814 C75.142,0.814 73.45,2.758 73.45,4.792 C73.45,9.526 80.146,8.356 80.146,9.508 C80.146,9.976 79.498,10.156 78.814,10.156 C77.194,10.156 75.844,9.472 74.944,8.608 L73.054,11.308 C74.332,12.46 76.078,13.216 78.634,13.216 Z M90.622,13.216 C92.782,13.216 94.438,11.632 94.438,8.644 C94.438,5.674 92.782,4.09 90.622,4.09 C89.722,4.09 88.876,4.396 88.174,5.224 L88.174,4.306 L84.934,4.306 L84.934,16.312 L88.174,16.312 L88.174,12.082 C88.894,12.91 89.722,13.216 90.622,13.216 Z M89.506,10.354 C89.092,10.354 88.462,10.12 88.174,9.76 L88.174,7.546 C88.48,7.168 89.092,6.952 89.506,6.952 C90.37,6.952 91.126,7.564 91.126,8.644 C91.126,9.742 90.37,10.354 89.506,10.354 Z M104.752,13 L104.752,4.306 L101.512,4.306 L101.512,9.67 C101.242,9.976 100.864,10.354 100.144,10.354 C99.352,10.354 98.884,10.012 98.884,9.13 L98.884,4.306 L95.644,4.306 L95.644,10.516 C95.644,12.01 96.508,13.216 98.524,13.216 C100.054,13.216 101.008,12.586 101.512,12.028 L101.512,13 L104.752,13 Z M110.206,13.216 C111.304,13.216 112.06,12.946 112.402,12.64 L111.826,10.192 C111.754,10.264 111.466,10.354 111.178,10.354 C110.746,10.354 110.458,9.994 110.458,9.544 L110.458,7.114 L112.222,7.114 L112.222,4.306 L110.458,4.306 L110.458,1.93 L107.218,1.93 L107.218,4.306 L105.778,4.306 L105.778,7.114 L107.218,7.114 L107.218,10.48 C107.218,12.298 108.28,13.216 110.206,13.216 Z M122.554,13 L122.554,6.826 C122.554,5.314 121.672,4.09 119.656,4.09 C118.126,4.09 117.172,4.72 116.668,5.296 L116.668,4.306 L113.428,4.306 L113.428,13 L116.668,13 L116.668,7.636 C116.938,7.33 117.316,6.952 118.054,6.952 C118.828,6.952 119.314,7.294 119.314,8.194 L119.314,13 L122.554,13 Z M125.974,3.676 C126.982,3.676 127.792,2.866 127.792,1.858 C127.792,0.85 126.982,0.04 125.974,0.04 C124.966,0.04 124.156,0.85 124.156,1.858 C124.156,2.866 124.966,3.676 125.974,3.676 Z M127.594,13 L127.594,4.306 L124.354,4.306 L124.354,13 L127.594,13 Z M138.736,13 L135.55,8.266 L138.538,4.306 L134.632,4.306 L132.634,7.402 L132.634,0.994 L129.394,0.994 L129.394,13 L132.634,13 L132.634,11.038 L133.264,10.192 L134.758,13 L138.736,13 Z" id="Sputnik" fill="#FFFFFF"></path>
                <rect id="Rectangle" fill="#BC1212" x="0" y="0" width="2" height="18"></rect>
            </g>
        </g>
    </g>
</svg>